<svg width="133" height="131" viewBox="0 0 133 131" fill="none" xmlns="http://www.w3.org/2000/svg">
<g id="Group 2">
<path id="Vector" fill-rule="evenodd" clip-rule="evenodd" d="M0.763336 109.937V130.944H33.8188V120.466H10.0189V102.432L0.763336 109.937ZM123.73 10.228V120.466H99.9297V130.944H132.985V2.72278L123.73 10.228Z" fill="white"/>
<path id="Vector_2" fill-rule="evenodd" clip-rule="evenodd" d="M132.985 21.3398V0H99.9297V10.4461H123.73V28.8215L132.985 21.3398ZM10.0189 120.74V10.4461H33.8188V0H0.763336V128.222L10.0189 120.74Z" fill="#00A8E8"/>
<path id="Vector_3" fill-rule="evenodd" clip-rule="evenodd" d="M0.763336 109.937V130.944H33.8188V120.466H10.0189V102.432L0.763336 109.937ZM123.73 10.228V120.466H99.9297V130.944H132.985V2.72278L123.73 10.228Z" fill="white"/>
<path id="Vector_4" fill-rule="evenodd" clip-rule="evenodd" d="M132.985 21.3398V0H99.9297V10.4461H123.73V28.8215L132.985 21.3398ZM10.0189 120.74V10.4461H33.8188V0H0.763336V128.222L10.0189 120.74Z" fill="#00A8E8"/>
</g>
</svg>
