<svg width="124" height="23" viewBox="0 0 124 23" fill="none" xmlns="http://www.w3.org/2000/svg">
<g id="&#208;&#159;&#209;&#128;&#208;&#190;&#209;&#129;&#209;&#130;&#208;&#190;">
<path d="M0 0.390985H17.3387V22.4366H14.4063V2.99254H2.91735V22.4366H0V0.390985Z" fill="white"/>
<path d="M21.9453 22.4366V0.390985H30.2613C31.725 0.390985 32.8428 0.461162 33.6147 0.601516C34.6975 0.781971 35.6047 1.12784 36.3366 1.63913C37.0684 2.14039 37.6549 2.84718 38.096 3.75948C38.5472 4.67178 38.7727 5.6743 38.7727 6.76706C38.7727 8.64178 38.1762 10.2308 36.9832 11.5341C35.7902 12.8273 33.6348 13.474 30.5169 13.474H24.8627V22.4366H21.9453ZM24.8627 10.8724H30.562C32.4468 10.8724 33.7852 10.5215 34.5772 9.81975C35.3691 9.11798 35.7651 8.13049 35.7651 6.85728C35.7651 5.93496 35.5296 5.14798 35.0584 4.49633C34.5972 3.83467 33.9857 3.39857 33.2237 3.18804C32.7325 3.05771 31.8252 2.99254 30.5019 2.99254H24.8627V10.8724Z" fill="white"/>
<path d="M40.7477 11.6995C40.7477 8.04027 41.7302 5.17805 43.6951 3.11285C45.6601 1.03762 48.1965 0 51.3043 0C53.3394 0 55.1741 0.486226 56.8082 1.45868C58.4423 2.43113 59.6854 3.78955 60.5376 5.53395C61.3998 7.26832 61.8308 9.23829 61.8308 11.4438C61.8308 13.6795 61.3797 15.6795 60.4774 17.444C59.5752 19.2084 58.2969 20.5468 56.6428 21.4591C54.9886 22.3614 53.2041 22.8125 51.2893 22.8125C49.214 22.8125 47.3594 22.3112 45.7252 21.3087C44.0911 20.3062 42.853 18.9377 42.0109 17.2034C41.1688 15.469 40.7477 13.6344 40.7477 11.6995ZM43.7553 11.7446C43.7553 14.4013 44.4671 16.4966 45.8907 18.0304C47.3243 19.5543 49.1188 20.3162 51.2742 20.3162C53.4698 20.3162 55.2743 19.5443 56.6879 18.0004C58.1115 16.4565 58.8233 14.266 58.8233 11.4288C58.8233 9.63428 58.5175 8.07034 57.906 6.73698C57.3044 5.39359 56.4172 4.35598 55.2442 3.62413C54.0813 2.88226 52.773 2.51133 51.3193 2.51133C49.2541 2.51133 47.4747 3.22312 45.9809 4.64671C44.4972 6.06027 43.7553 8.42624 43.7553 11.7446Z" fill="white"/>
<path d="M81.1746 14.7071L84.092 15.4439C83.4804 17.84 82.3776 19.6696 80.7836 20.9328C79.1996 22.1859 77.2597 22.8125 74.964 22.8125C72.588 22.8125 70.6531 22.3313 69.1593 21.3689C67.6756 20.3964 66.5427 18.9929 65.7607 17.1582C64.9888 15.3236 64.6028 13.3537 64.6028 11.2484C64.6028 8.95257 65.0389 6.95252 65.9111 5.24823C66.7934 3.53391 68.0415 2.23563 69.6556 1.35341C71.2797 0.461162 73.0642 0.0150379 75.0091 0.0150379C77.2146 0.0150379 79.0693 0.576453 80.5731 1.69928C82.0769 2.82211 83.1245 4.40109 83.716 6.43622L80.8438 7.11293C80.3325 5.50888 79.5906 4.34094 78.6182 3.6091C77.6457 2.87725 76.4226 2.51133 74.9489 2.51133C73.2546 2.51133 71.8361 2.91735 70.6932 3.7294C69.5603 4.54145 68.7633 5.6342 68.3022 7.00766C67.841 8.3711 67.6104 9.77965 67.6104 11.2333C67.6104 13.108 67.8811 14.7472 68.4225 16.1507C68.9739 17.5442 69.826 18.5868 70.9789 19.2786C72.1318 19.9703 73.38 20.3162 74.7233 20.3162C76.3575 20.3162 77.7409 19.845 78.8738 18.9026C80.0067 17.9603 80.7736 16.5617 81.1746 14.7071Z" fill="white"/>
<path d="M92.1272 22.4366V2.99254H84.8639V0.390985H102.338V2.99254H95.0446V22.4366H92.1272Z" fill="white"/>
<path d="M102.914 11.6995C102.914 8.04027 103.897 5.17805 105.862 3.11285C107.827 1.03762 110.363 0 113.471 0C115.506 0 117.341 0.486226 118.975 1.45868C120.609 2.43113 121.852 3.78955 122.704 5.53395C123.566 7.26832 123.998 9.23829 123.998 11.4438C123.998 13.6795 123.546 15.6795 122.644 17.444C121.742 19.2084 120.464 20.5468 118.809 21.4591C117.155 22.3614 115.371 22.8125 113.456 22.8125C111.381 22.8125 109.526 22.3112 107.892 21.3087C106.258 20.3062 105.02 18.9377 104.178 17.2034C103.335 15.469 102.914 13.6344 102.914 11.6995ZM105.922 11.7446C105.922 14.4013 106.634 16.4966 108.057 18.0304C109.491 19.5543 111.285 20.3162 113.441 20.3162C115.636 20.3162 117.441 19.5443 118.855 18.0004C120.278 16.4565 120.99 14.266 120.99 11.4288C120.99 9.63428 120.684 8.07034 120.073 6.73698C119.471 5.39359 118.584 4.35598 117.411 3.62413C116.248 2.88226 114.94 2.51133 113.486 2.51133C111.421 2.51133 109.641 3.22312 108.148 4.64671C106.664 6.06027 105.922 8.42624 105.922 11.7446Z" fill="white"/>
</g>
</svg>
